# xmcd CD database file
#
# Track frame offsets:
#	150
#	10977
#	25792
#	35307
#	46695
#	56155
#	71182
#	82422
#	97950
#	123295
#	137690
#	149730
#	169367
#	187234
#	218185
#
# Disc length: 3090 seconds
#
# Revision: 0
# Processed by: cddbd v1.4PL0 Copyright (c) Steve Scherf et al.
# Submitted via: Feurio! 1.66 - http://www.feurio.com
#
DISCID=e30c100f
DTITLE=Various Artist - Roots Of The Blues CD 3 Urban Blues
DYEAR=1900
DGENRE=blues
TTITLE0=Junior Wells - Messin' With The Kid
TTITLE1=Otis Rush - I Can't Quit You Baby
TTITLE2=J.B. Hutto and The Hawks - Going Ahead
TTITLE3=Otis Spann - Marie
TTITLE4=James Cotton - Rocket 88
TTITLE5=Homesick James and His Dusters - Dust My Broom
TTITLE6=Johnny Young's Southside Blues Band - One More Time
TTITLE7=Johnny Shines Blues Band - If I Get Lucky
TTITLE8=Buddy Guy - One Room Country Shack
TTITLE9=Muddy Waters with Otis Spann - Blow Wind Blow
TTITLE10=Lightnin' Hopkins - Baby Please Don't Go
TTITLE11=Paul Butterfield Blues Band - Blues With A Feeling
TTITLE12=Charlie Musselwhite - Juke
TTITLE13=Big Mama Thornton - Ball And Chain
TTITLE14=John Lee Hooker - Boom Boom
EXTD=
EXTT0=
EXTT1=
EXTT2=
EXTT3=
EXTT4=
EXTT5=
EXTT6=
EXTT7=
EXTT8=
EXTT9=
EXTT10=
EXTT11=
EXTT12=
EXTT13=
EXTT14=
PLAYORDER=
